<svg xmlns="http://www.w3.org/2000/svg" viewBox="0 0 180 1200"><path d="M150 0 C 100 130, 60 220, 90 330 C 130 470, 30 560, 85 700 C 125 800, 60 910, 110 1200" fill="none" stroke="#284228" stroke-width="8"/><g fill="#3d5c38"><ellipse cx="125" cy="120" rx="28" ry="12" transform="rotate(30 125 120)"/><ellipse cx="60" cy="210" rx="26" ry="11" transform="rotate(-25 60 210)"/><ellipse cx="118" cy="390" rx="30" ry="12" transform="rotate(20 118 390)"/><ellipse cx="48" cy="530" rx="26" ry="11" transform="rotate(-20 48 530)"/><ellipse cx="126" cy="720" rx="28" ry="12" transform="rotate(30 126 720)"/><ellipse cx="64" cy="890" rx="28" ry="12" transform="rotate(-25 64 890)"/></g></svg>