<svg xmlns="http://www.w3.org/2000/svg" viewBox="0 0 180 1200"><path d="M30 0 C 80 130, 120 220, 90 330 C 50 470, 150 560, 95 700 C 55 800, 120 910, 70 1200" fill="none" stroke="#284228" stroke-width="8"/><g fill="#3d5c38"><ellipse cx="55" cy="120" rx="28" ry="12" transform="rotate(-30 55 120)"/><ellipse cx="120" cy="210" rx="26" ry="11" transform="rotate(25 120 210)"/><ellipse cx="62" cy="390" rx="30" ry="12" transform="rotate(-20 62 390)"/><ellipse cx="132" cy="530" rx="26" ry="11" transform="rotate(20 132 530)"/><ellipse cx="54" cy="720" rx="28" ry="12" transform="rotate(-30 54 720)"/><ellipse cx="116" cy="890" rx="28" ry="12" transform="rotate(25 116 890)"/></g></svg>