<svg xmlns="http://www.w3.org/2000/svg" width="180" height="1200"><g fill="none" stroke="#486644" stroke-width="6" stroke-linecap="round"><path d="M60 0 C120 120, 20 220, 100 320 S30 520, 110 650 S50 930, 140 1200"/></g><g fill="#5f8058"><ellipse cx="140" cy="60" rx="18" ry="10" transform="rotate(-25 140 60)"/><ellipse cx="115" cy="140" rx="18" ry="10" transform="rotate(30 115 140)"/><ellipse cx="90" cy="220" rx="18" ry="10" transform="rotate(-25 90 220)"/><ellipse cx="140" cy="300" rx="18" ry="10" transform="rotate(30 140 300)"/><ellipse cx="115" cy="380" rx="18" ry="10" transform="rotate(-25 115 380)"/><ellipse cx="90" cy="460" rx="18" ry="10" transform="rotate(30 90 460)"/><ellipse cx="140" cy="540" rx="18" ry="10" transform="rotate(-25 140 540)"/><ellipse cx="115" cy="620" rx="18" ry="10" transform="rotate(30 115 620)"/><ellipse cx="90" cy="700" rx="18" ry="10" transform="rotate(-25 90 700)"/><ellipse cx="140" cy="780" rx="18" ry="10" transform="rotate(30 140 780)"/><ellipse cx="115" cy="860" rx="18" ry="10" transform="rotate(-25 115 860)"/><ellipse cx="90" cy="940" rx="18" ry="10" transform="rotate(30 90 940)"/><ellipse cx="140" cy="1020" rx="18" ry="10" transform="rotate(-25 140 1020)"/><ellipse cx="115" cy="1100" rx="18" ry="10" transform="rotate(30 115 1100)"/></g></svg>