<svg xmlns="http://www.w3.org/2000/svg" width="180" height="1200"><g fill="none" stroke="#486644" stroke-width="6" stroke-linecap="round"><path d="M120 0 C60 120, 160 220, 80 320 S150 520, 70 650 S130 930, 40 1200"/></g><g fill="#5f8058"><ellipse cx="40" cy="60" rx="18" ry="10" transform="rotate(25 40 60)"/><ellipse cx="65" cy="140" rx="18" ry="10" transform="rotate(-30 65 140)"/><ellipse cx="90" cy="220" rx="18" ry="10" transform="rotate(25 90 220)"/><ellipse cx="40" cy="300" rx="18" ry="10" transform="rotate(-30 40 300)"/><ellipse cx="65" cy="380" rx="18" ry="10" transform="rotate(25 65 380)"/><ellipse cx="90" cy="460" rx="18" ry="10" transform="rotate(-30 90 460)"/><ellipse cx="40" cy="540" rx="18" ry="10" transform="rotate(25 40 540)"/><ellipse cx="65" cy="620" rx="18" ry="10" transform="rotate(-30 65 620)"/><ellipse cx="90" cy="700" rx="18" ry="10" transform="rotate(25 90 700)"/><ellipse cx="40" cy="780" rx="18" ry="10" transform="rotate(-30 40 780)"/><ellipse cx="65" cy="860" rx="18" ry="10" transform="rotate(25 65 860)"/><ellipse cx="90" cy="940" rx="18" ry="10" transform="rotate(-30 90 940)"/><ellipse cx="40" cy="1020" rx="18" ry="10" transform="rotate(25 40 1020)"/><ellipse cx="65" cy="1100" rx="18" ry="10" transform="rotate(-30 65 1100)"/></g></svg>