<svg xmlns="http://www.w3.org/2000/svg" width="1600" height="1200"><defs><linearGradient id="g" x1="0" y1="0" x2="0" y2="1"><stop stop-color="#5a3a22"/><stop offset="1" stop-color="#2b1b11"/></linearGradient></defs><rect width="100%" height="100%" fill="url(#g)"/><g opacity=".18"><rect x="0" y="0" width="44" height="1200" fill="#000" opacity="0.22"/><rect x="80" y="0" width="44" height="1200" fill="#000" opacity="0.22"/><rect x="160" y="0" width="44" height="1200" fill="#000" opacity="0.22"/><rect x="240" y="0" width="44" height="1200" fill="#000" opacity="0.22"/><rect x="320" y="0" width="44" height="1200" fill="#000" opacity="0.22"/><rect x="400" y="0" width="44" height="1200" fill="#000" opacity="0.22"/><rect x="480" y="0" width="44" height="1200" fill="#000" opacity="0.22"/><rect x="560" y="0" width="44" height="1200" fill="#000" opacity="0.22"/><rect x="640" y="0" width="44" height="1200" fill="#000" opacity="0.22"/><rect x="720" y="0" width="44" height="1200" fill="#000" opacity="0.22"/><rect x="800" y="0" width="44" height="1200" fill="#000" opacity="0.22"/><rect x="880" y="0" width="44" height="1200" fill="#000" opacity="0.22"/><rect x="960" y="0" width="44" height="1200" fill="#000" opacity="0.22"/><rect x="1040" y="0" width="44" height="1200" fill="#000" opacity="0.22"/><rect x="1120" y="0" width="44" height="1200" fill="#000" opacity="0.22"/><rect x="1200" y="0" width="44" height="1200" fill="#000" opacity="0.22"/><rect x="1280" y="0" width="44" height="1200" fill="#000" opacity="0.22"/><rect x="1360" y="0" width="44" height="1200" fill="#000" opacity="0.22"/><rect x="1440" y="0" width="44" height="1200" fill="#000" opacity="0.22"/><rect x="1520" y="0" width="44" height="1200" fill="#000" opacity="0.22"/><line x1="0" y1="0" x2="1600" y2="0" stroke="#d2a56b" stroke-opacity="0.08" stroke-width="4"/><line x1="0" y1="90" x2="1600" y2="90" stroke="#d2a56b" stroke-opacity="0.08" stroke-width="4"/><line x1="0" y1="180" x2="1600" y2="180" stroke="#d2a56b" stroke-opacity="0.08" stroke-width="4"/><line x1="0" y1="270" x2="1600" y2="270" stroke="#d2a56b" stroke-opacity="0.08" stroke-width="4"/><line x1="0" y1="360" x2="1600" y2="360" stroke="#d2a56b" stroke-opacity="0.08" stroke-width="4"/><line x1="0" y1="450" x2="1600" y2="450" stroke="#d2a56b" stroke-opacity="0.08" stroke-width="4"/><line x1="0" y1="540" x2="1600" y2="540" stroke="#d2a56b" stroke-opacity="0.08" stroke-width="4"/><line x1="0" y1="630" x2="1600" y2="630" stroke="#d2a56b" stroke-opacity="0.08" stroke-width="4"/><line x1="0" y1="720" x2="1600" y2="720" stroke="#d2a56b" stroke-opacity="0.08" stroke-width="4"/><line x1="0" y1="810" x2="1600" y2="810" stroke="#d2a56b" stroke-opacity="0.08" stroke-width="4"/><line x1="0" y1="900" x2="1600" y2="900" stroke="#d2a56b" stroke-opacity="0.08" stroke-width="4"/><line x1="0" y1="990" x2="1600" y2="990" stroke="#d2a56b" stroke-opacity="0.08" stroke-width="4"/><line x1="0" y1="1080" x2="1600" y2="1080" stroke="#d2a56b" stroke-opacity="0.08" stroke-width="4"/><line x1="0" y1="1170" x2="1600" y2="1170" stroke="#d2a56b" stroke-opacity="0.08" stroke-width="4"/></g></svg>